<svg width="270" height="43" viewBox="0 0 270 43" fill="none" xmlns="http://www.w3.org/2000/svg">
<path d="M8.65914 8.86C9.06714 8.86 9.59514 8.848 10.2431 8.824C10.9151 8.8 11.6111 8.788 12.3311 8.788C13.0511 8.764 13.7711 8.74 14.4911 8.716C15.2111 8.692 15.8351 8.68 16.3631 8.68C18.2351 8.68 19.8551 8.872 21.2231 9.256C22.5911 9.64 23.7071 10.276 24.5711 11.164C25.4591 12.052 26.1071 13.216 26.5151 14.656C26.9471 16.072 27.1631 17.824 27.1631 19.912C27.1631 22 26.9471 23.764 26.5151 25.204C26.1071 26.644 25.4591 27.808 24.5711 28.696C23.7071 29.56 22.5911 30.184 21.2231 30.568C19.8551 30.952 18.2351 31.144 16.3631 31.144C15.6911 31.144 14.9831 31.132 14.2391 31.108C13.5191 31.108 12.8111 31.096 12.1151 31.072C11.4191 31.048 10.7591 31.024 10.1351 31C9.53514 31 9.04314 31 8.65914 31H4.12314V28.912H7.32714V10.948H4.12314V8.86H8.65914ZM13.3751 10.48V29.272H17.6951C18.0791 29.272 18.4031 29.26 18.6671 29.236C18.9551 29.212 19.1951 29.188 19.3871 29.164C19.5791 28.348 19.7471 27.448 19.8911 26.464C20.0111 25.624 20.1311 24.652 20.2511 23.548C20.3711 22.42 20.4311 21.208 20.4311 19.912C20.4311 18.568 20.3711 17.344 20.2511 16.24C20.1311 15.112 20.0111 14.14 19.8911 13.324C19.7471 12.364 19.5791 11.5 19.3871 10.732C19.1951 10.708 18.9551 10.672 18.6671 10.624C18.4031 10.576 18.0791 10.54 17.6951 10.516C17.3351 10.492 16.8911 10.48 16.3631 10.48H13.3751ZM38.2137 14.584C39.5337 14.584 40.6257 14.716 41.4897 14.98C42.3537 15.22 43.0497 15.616 43.5777 16.168C44.1057 16.72 44.4777 17.452 44.6937 18.364C44.9097 19.252 45.0177 20.356 45.0177 21.676C45.0177 22.084 45.0057 22.444 44.9817 22.756C44.9577 23.044 44.9337 23.284 44.9097 23.476C44.8857 23.716 44.8617 23.896 44.8377 24.016H35.9457C35.9697 24.832 36.0177 25.576 36.0897 26.248C36.1617 26.896 36.2337 27.46 36.3057 27.94C36.4017 28.516 36.4977 29.02 36.5937 29.452C36.6657 29.5 36.7737 29.536 36.9177 29.56C37.0377 29.584 37.2057 29.608 37.4217 29.632C37.6617 29.632 37.9617 29.632 38.3217 29.632C38.9217 29.632 39.4857 29.596 40.0137 29.524C40.5657 29.428 41.0457 29.284 41.4537 29.092C41.8617 28.9 42.1737 28.636 42.3897 28.3C42.6297 27.94 42.7497 27.508 42.7497 27.004H44.6937C44.6937 28.012 44.4657 28.804 44.0097 29.38C43.5777 29.956 43.0257 30.4 42.3537 30.712C41.7057 31 40.9977 31.18 40.2297 31.252C39.4617 31.324 38.7417 31.36 38.0697 31.36C36.6057 31.36 35.3577 31.216 34.3257 30.928C33.3177 30.616 32.4897 30.136 31.8417 29.488C31.2177 28.816 30.7617 27.952 30.4737 26.896C30.1857 25.816 30.0417 24.508 30.0417 22.972C30.0417 21.436 30.1617 20.14 30.4017 19.084C30.6657 18.004 31.1097 17.14 31.7337 16.492C32.3577 15.82 33.1857 15.34 34.2177 15.052C35.2737 14.74 36.6057 14.584 38.2137 14.584ZM36.5937 16.42C36.4737 16.948 36.3657 17.524 36.2697 18.148C36.1977 18.7 36.1257 19.348 36.0537 20.092C35.9817 20.812 35.9457 21.604 35.9457 22.468H39.4377C39.3897 21.46 39.3297 20.584 39.2577 19.84C39.1857 19.072 39.1017 18.436 39.0057 17.932C38.9097 17.332 38.8017 16.828 38.6817 16.42C38.6097 16.396 38.5257 16.36 38.4297 16.312C38.3337 16.288 38.2137 16.264 38.0697 16.24C37.9497 16.216 37.8057 16.204 37.6377 16.204C37.4697 16.204 37.3257 16.216 37.2057 16.24C37.0857 16.264 36.9777 16.288 36.8817 16.312C36.7857 16.36 36.6897 16.396 36.5937 16.42ZM45.398 14.836H52.922L57.566 24.088L60.806 16.672H57.926V14.836H65.414V16.672H62.894L56.27 32.08H55.514L47.342 16.672H45.398V14.836ZM70.499 8.86C70.907 8.86 71.435 8.848 72.083 8.824C72.755 8.8 73.451 8.788 74.171 8.788C74.891 8.764 75.611 8.74 76.331 8.716C77.051 8.692 77.675 8.68 78.203 8.68C80.075 8.68 81.695 8.872 83.063 9.256C84.431 9.64 85.547 10.276 86.411 11.164C87.299 12.052 87.947 13.216 88.355 14.656C88.787 16.072 89.003 17.824 89.003 19.912C89.003 22 88.787 23.764 88.355 25.204C87.947 26.644 87.299 27.808 86.411 28.696C85.547 29.56 84.431 30.184 83.063 30.568C81.695 30.952 80.075 31.144 78.203 31.144C77.531 31.144 76.823 31.132 76.079 31.108C75.359 31.108 74.651 31.096 73.955 31.072C73.259 31.048 72.599 31.024 71.975 31C71.375 31 70.883 31 70.499 31H65.963V28.912H69.167V10.948H65.963V8.86H70.499ZM75.215 10.48V29.272H79.535C79.919 29.272 80.243 29.26 80.507 29.236C80.795 29.212 81.035 29.188 81.227 29.164C81.419 28.348 81.587 27.448 81.731 26.464C81.851 25.624 81.971 24.652 82.091 23.548C82.211 22.42 82.271 21.208 82.271 19.912C82.271 18.568 82.211 17.344 82.091 16.24C81.971 15.112 81.851 14.14 81.731 13.324C81.587 12.364 81.419 11.5 81.227 10.732C81.035 10.708 80.795 10.672 80.507 10.624C80.243 10.576 79.919 10.54 79.535 10.516C79.175 10.492 78.731 10.48 78.203 10.48H75.215ZM91.7016 15.484H93.8256L99.2616 14.44V16.744C99.2856 16.672 99.3696 16.528 99.5136 16.312C99.6816 16.072 99.9336 15.832 100.27 15.592C100.63 15.328 101.086 15.1 101.638 14.908C102.214 14.692 102.934 14.584 103.798 14.584C104.326 14.584 104.734 14.596 105.022 14.62C105.334 14.644 105.574 14.668 105.742 14.692C105.934 14.716 106.054 14.74 106.102 14.764V21.712C105.238 21.712 104.518 21.544 103.942 21.208C103.366 20.872 102.898 20.452 102.538 19.948C102.178 19.444 101.902 18.916 101.71 18.364C101.518 17.812 101.386 17.32 101.314 16.888C101.098 17.008 100.894 17.176 100.702 17.392C100.51 17.584 100.33 17.8 100.162 18.04C100.018 18.256 99.8856 18.472 99.7656 18.688C99.6456 18.88 99.5616 19.036 99.5136 19.156V29.164H101.638V31H91.7016V29.164H93.8256V17.284H91.7016V15.484ZM116.085 14.584C117.405 14.584 118.497 14.716 119.361 14.98C120.225 15.22 120.921 15.616 121.449 16.168C121.977 16.72 122.349 17.452 122.565 18.364C122.781 19.252 122.889 20.356 122.889 21.676C122.889 22.084 122.877 22.444 122.853 22.756C122.829 23.044 122.805 23.284 122.781 23.476C122.757 23.716 122.733 23.896 122.709 24.016H113.817C113.841 24.832 113.889 25.576 113.961 26.248C114.033 26.896 114.105 27.46 114.177 27.94C114.273 28.516 114.369 29.02 114.465 29.452C114.537 29.5 114.645 29.536 114.789 29.56C114.909 29.584 115.077 29.608 115.293 29.632C115.533 29.632 115.833 29.632 116.193 29.632C116.793 29.632 117.357 29.596 117.885 29.524C118.437 29.428 118.917 29.284 119.325 29.092C119.733 28.9 120.045 28.636 120.261 28.3C120.501 27.94 120.621 27.508 120.621 27.004H122.565C122.565 28.012 122.337 28.804 121.881 29.38C121.449 29.956 120.897 30.4 120.225 30.712C119.577 31 118.869 31.18 118.101 31.252C117.333 31.324 116.613 31.36 115.941 31.36C114.477 31.36 113.229 31.216 112.197 30.928C111.189 30.616 110.361 30.136 109.713 29.488C109.089 28.816 108.633 27.952 108.345 26.896C108.057 25.816 107.913 24.508 107.913 22.972C107.913 21.436 108.033 20.14 108.273 19.084C108.537 18.004 108.981 17.14 109.605 16.492C110.229 15.82 111.057 15.34 112.089 15.052C113.145 14.74 114.477 14.584 116.085 14.584ZM114.465 16.42C114.345 16.948 114.237 17.524 114.141 18.148C114.069 18.7 113.997 19.348 113.925 20.092C113.853 20.812 113.817 21.604 113.817 22.468H117.309C117.261 21.46 117.201 20.584 117.129 19.84C117.057 19.072 116.973 18.436 116.877 17.932C116.781 17.332 116.673 16.828 116.553 16.42C116.481 16.396 116.397 16.36 116.301 16.312C116.205 16.288 116.085 16.264 115.941 16.24C115.821 16.216 115.677 16.204 115.509 16.204C115.341 16.204 115.197 16.216 115.077 16.24C114.957 16.264 114.849 16.288 114.753 16.312C114.657 16.36 114.561 16.396 114.465 16.42ZM140.289 29.2H140.757C140.973 29.2 141.189 29.188 141.405 29.164L142.197 29.092V30.82C141.765 30.892 141.345 30.952 140.937 31C140.601 31.048 140.241 31.084 139.857 31.108C139.473 31.132 139.161 31.144 138.921 31.144C137.745 31.144 136.857 30.928 136.257 30.496C135.657 30.064 135.225 29.596 134.961 29.092C134.433 29.764 133.821 30.304 133.125 30.712C132.453 31.096 131.673 31.288 130.785 31.288C129.153 31.288 127.941 30.988 127.149 30.388C126.357 29.764 125.961 28.696 125.961 27.184C125.961 26.656 125.961 26.152 125.961 25.672C125.985 25.192 126.021 24.772 126.069 24.412C126.117 23.98 126.165 23.596 126.213 23.26L134.565 21.208C134.541 20.512 134.517 19.876 134.493 19.3C134.469 18.7 134.445 18.196 134.421 17.788C134.373 17.308 134.337 16.876 134.313 16.492C134.241 16.468 134.133 16.444 133.989 16.42C133.869 16.396 133.689 16.372 133.449 16.348C133.209 16.324 132.921 16.312 132.585 16.312C132.369 16.312 132.165 16.324 131.973 16.348C131.781 16.348 131.589 16.36 131.397 16.384C131.325 16.72 131.205 17.128 131.037 17.608C130.869 18.064 130.605 18.508 130.245 18.94C129.885 19.348 129.405 19.708 128.805 20.02C128.229 20.308 127.485 20.452 126.573 20.452V15.016C127.341 14.944 128.121 14.872 128.913 14.8C129.609 14.752 130.353 14.704 131.145 14.656C131.937 14.608 132.705 14.584 133.449 14.584C135.009 14.584 136.233 14.716 137.121 14.98C138.033 15.244 138.717 15.7 139.173 16.348C139.653 16.996 139.953 17.86 140.073 18.94C140.217 20.02 140.289 21.364 140.289 22.972V29.2ZM131.937 29.344C132.417 29.224 132.873 28.924 133.305 28.444C133.761 27.94 134.193 27.34 134.601 26.644V22.828L131.865 23.584C131.817 23.968 131.781 24.364 131.757 24.772C131.733 25.156 131.721 25.54 131.721 25.924C131.721 26.404 131.721 26.848 131.721 27.256C131.745 27.664 131.781 28.024 131.829 28.336C131.853 28.696 131.889 29.032 131.937 29.344ZM143.803 15.484H145.927L151.363 14.44V16.852C151.459 16.708 151.627 16.504 151.867 16.24C152.131 15.976 152.467 15.724 152.875 15.484C153.283 15.244 153.775 15.04 154.351 14.872C154.951 14.68 155.647 14.584 156.439 14.584C156.895 14.584 157.363 14.62 157.843 14.692C158.323 14.764 158.767 14.884 159.175 15.052C159.607 15.22 159.991 15.448 160.327 15.736C160.663 16.024 160.903 16.396 161.047 16.852C161.119 16.756 161.263 16.588 161.479 16.348C161.695 16.084 161.995 15.82 162.379 15.556C162.787 15.292 163.291 15.064 163.891 14.872C164.491 14.68 165.211 14.584 166.051 14.584C166.603 14.584 167.155 14.632 167.707 14.728C168.283 14.824 168.799 15.004 169.255 15.268C169.735 15.508 170.119 15.844 170.407 16.276C170.695 16.708 170.839 17.272 170.839 17.968V29.164H172.963V31H165.151V16.816L165.043 16.78C164.995 16.756 164.923 16.744 164.827 16.744C164.731 16.72 164.587 16.708 164.395 16.708C163.987 16.708 163.603 16.816 163.243 17.032C162.907 17.248 162.595 17.5 162.307 17.788C162.043 18.052 161.815 18.328 161.623 18.616C161.431 18.88 161.299 19.072 161.227 19.192V29.164H163.351V31H155.539V16.816L155.431 16.78C155.383 16.756 155.311 16.744 155.215 16.744C155.119 16.72 154.975 16.708 154.783 16.708C154.375 16.708 153.991 16.816 153.631 17.032C153.295 17.248 152.983 17.5 152.695 17.788C152.431 18.052 152.203 18.328 152.011 18.616C151.819 18.88 151.687 19.072 151.615 19.192V29.164H153.739V31H143.803V29.164H145.927V17.284H143.803V15.484ZM201.714 8.86V15.664C200.538 15.664 199.59 15.496 198.87 15.16C198.174 14.8 197.622 14.38 197.214 13.9C196.83 13.42 196.566 12.916 196.422 12.388C196.278 11.836 196.194 11.356 196.17 10.948H194.154V28.912H197.358V31H184.902V28.912H188.106V10.948H186.054C186.03 11.356 185.946 11.836 185.802 12.388C185.682 12.916 185.418 13.42 185.01 13.9C184.626 14.38 184.074 14.8 183.354 15.16C182.634 15.496 181.698 15.664 180.546 15.664V8.86H201.714ZM210.268 14.584C211.588 14.584 212.68 14.716 213.544 14.98C214.408 15.22 215.104 15.616 215.632 16.168C216.16 16.72 216.532 17.452 216.748 18.364C216.964 19.252 217.072 20.356 217.072 21.676C217.072 22.084 217.06 22.444 217.036 22.756C217.012 23.044 216.988 23.284 216.964 23.476C216.94 23.716 216.916 23.896 216.892 24.016H208C208.024 24.832 208.072 25.576 208.144 26.248C208.216 26.896 208.288 27.46 208.36 27.94C208.456 28.516 208.552 29.02 208.648 29.452C208.72 29.5 208.828 29.536 208.972 29.56C209.092 29.584 209.26 29.608 209.476 29.632C209.716 29.632 210.016 29.632 210.376 29.632C210.976 29.632 211.54 29.596 212.068 29.524C212.62 29.428 213.1 29.284 213.508 29.092C213.916 28.9 214.228 28.636 214.444 28.3C214.684 27.94 214.804 27.508 214.804 27.004H216.748C216.748 28.012 216.52 28.804 216.064 29.38C215.632 29.956 215.08 30.4 214.408 30.712C213.76 31 213.052 31.18 212.284 31.252C211.516 31.324 210.796 31.36 210.124 31.36C208.66 31.36 207.412 31.216 206.38 30.928C205.372 30.616 204.544 30.136 203.896 29.488C203.272 28.816 202.816 27.952 202.528 26.896C202.24 25.816 202.096 24.508 202.096 22.972C202.096 21.436 202.216 20.14 202.456 19.084C202.72 18.004 203.164 17.14 203.788 16.492C204.412 15.82 205.24 15.34 206.272 15.052C207.328 14.74 208.66 14.584 210.268 14.584ZM208.648 16.42C208.528 16.948 208.42 17.524 208.324 18.148C208.252 18.7 208.18 19.348 208.108 20.092C208.036 20.812 208 21.604 208 22.468H211.492C211.444 21.46 211.384 20.584 211.312 19.84C211.24 19.072 211.156 18.436 211.06 17.932C210.964 17.332 210.856 16.828 210.736 16.42C210.664 16.396 210.58 16.36 210.484 16.312C210.388 16.288 210.268 16.264 210.124 16.24C210.004 16.216 209.86 16.204 209.692 16.204C209.524 16.204 209.38 16.216 209.26 16.24C209.14 16.264 209.032 16.288 208.936 16.312C208.84 16.36 208.744 16.396 208.648 16.42ZM234.472 29.2H234.94C235.156 29.2 235.372 29.188 235.588 29.164L236.38 29.092V30.82C235.948 30.892 235.528 30.952 235.12 31C234.784 31.048 234.424 31.084 234.04 31.108C233.656 31.132 233.344 31.144 233.104 31.144C231.928 31.144 231.04 30.928 230.44 30.496C229.84 30.064 229.408 29.596 229.144 29.092C228.616 29.764 228.004 30.304 227.308 30.712C226.636 31.096 225.856 31.288 224.968 31.288C223.336 31.288 222.124 30.988 221.332 30.388C220.54 29.764 220.144 28.696 220.144 27.184C220.144 26.656 220.144 26.152 220.144 25.672C220.168 25.192 220.204 24.772 220.252 24.412C220.3 23.98 220.348 23.596 220.396 23.26L228.748 21.208C228.724 20.512 228.7 19.876 228.676 19.3C228.652 18.7 228.628 18.196 228.604 17.788C228.556 17.308 228.52 16.876 228.496 16.492C228.424 16.468 228.316 16.444 228.172 16.42C228.052 16.396 227.872 16.372 227.632 16.348C227.392 16.324 227.104 16.312 226.768 16.312C226.552 16.312 226.348 16.324 226.156 16.348C225.964 16.348 225.772 16.36 225.58 16.384C225.508 16.72 225.388 17.128 225.22 17.608C225.052 18.064 224.788 18.508 224.428 18.94C224.068 19.348 223.588 19.708 222.988 20.02C222.412 20.308 221.668 20.452 220.756 20.452V15.016C221.524 14.944 222.304 14.872 223.096 14.8C223.792 14.752 224.536 14.704 225.328 14.656C226.12 14.608 226.888 14.584 227.632 14.584C229.192 14.584 230.416 14.716 231.304 14.98C232.216 15.244 232.9 15.7 233.356 16.348C233.836 16.996 234.136 17.86 234.256 18.94C234.4 20.02 234.472 21.364 234.472 22.972V29.2ZM226.12 29.344C226.6 29.224 227.056 28.924 227.488 28.444C227.944 27.94 228.376 27.34 228.784 26.644V22.828L226.048 23.584C226 23.968 225.964 24.364 225.94 24.772C225.916 25.156 225.904 25.54 225.904 25.924C225.904 26.404 225.904 26.848 225.904 27.256C225.928 27.664 225.964 28.024 226.012 28.336C226.036 28.696 226.072 29.032 226.12 29.344ZM237.987 15.484H240.111L245.547 14.44V16.852C245.643 16.708 245.811 16.504 246.051 16.24C246.315 15.976 246.651 15.724 247.059 15.484C247.467 15.244 247.959 15.04 248.535 14.872C249.135 14.68 249.831 14.584 250.623 14.584C251.079 14.584 251.547 14.62 252.027 14.692C252.507 14.764 252.951 14.884 253.359 15.052C253.791 15.22 254.175 15.448 254.511 15.736C254.847 16.024 255.087 16.396 255.231 16.852C255.303 16.756 255.447 16.588 255.663 16.348C255.879 16.084 256.179 15.82 256.563 15.556C256.971 15.292 257.475 15.064 258.075 14.872C258.675 14.68 259.395 14.584 260.235 14.584C260.787 14.584 261.339 14.632 261.891 14.728C262.467 14.824 262.983 15.004 263.439 15.268C263.919 15.508 264.303 15.844 264.591 16.276C264.879 16.708 265.023 17.272 265.023 17.968V29.164H267.147V31H259.335V16.816L259.227 16.78C259.179 16.756 259.107 16.744 259.011 16.744C258.915 16.72 258.771 16.708 258.579 16.708C258.171 16.708 257.787 16.816 257.427 17.032C257.091 17.248 256.779 17.5 256.491 17.788C256.227 18.052 255.999 18.328 255.807 18.616C255.615 18.88 255.483 19.072 255.411 19.192V29.164H257.535V31H249.723V16.816L249.615 16.78C249.567 16.756 249.495 16.744 249.399 16.744C249.303 16.72 249.159 16.708 248.967 16.708C248.559 16.708 248.175 16.816 247.815 17.032C247.479 17.248 247.167 17.5 246.879 17.788C246.615 18.052 246.387 18.328 246.195 18.616C246.003 18.88 245.871 19.072 245.799 19.192V29.164H247.923V31H237.987V29.164H240.111V17.284H237.987V15.484Z" fill="#EB1B00"/>
<rect x="1" y="5" width="175" height="33" stroke="#EB1B00" stroke-width="2"/>
</svg>
